<?xml version="1.0" encoding="UTF-8"?> <svg xmlns="http://www.w3.org/2000/svg" viewBox="0 0 431.982 431.982" fill="#4152a0"><path d="m111.949 99.488c1.564-2.922 5.2-4.022 8.121-2.458h.001c29.035 15.541 52.689 31.963 70.964 49.266.129-.314.264-.626.387-.944 7.555-20.022 2.954-42.602-11.831-58.072-12.743-13.074-32.667-20.2-57.617-20.6-22.622-.332-45.067 4.044-65.907 12.852-3.05 1.294-4.474 4.816-3.18 7.867.512 1.206 1.404 2.211 2.54 2.862 12.822 7.448 22.731 19.034 28.1 32.857 1.4 3.662 2.483 7.479 3.63 11.521.852 3 1.734 6.106 2.76 9.158 1.561 4.946 3.77 9.663 6.568 14.029 9.355 14.126 24.827 22.136 42.208 22.136 18.15-.011 35.257-8.485 46.263-22.917-17.686-17.229-41.202-33.709-70.547-49.438-2.921-1.564-4.022-5.198-2.46-8.119z"></path><path d="m379.505 14.945c-.341-2.253-1.93-4.119-4.1-4.815-28.235-9.013-58.035-12.06-87.51-8.946-32.281 3.464-57.21 14.986-72.093 33.32-17.143 21.545-20.407 51.014-8.394 75.788 2.504 5.019 5.649 9.691 9.356 13.9 1.1-3.229 2.3-6.51 3.622-9.825 18-45.013 49.5-73.516 91.086-82.428 3.241-.696 6.432 1.368 7.128 4.608.696 3.241-1.368 6.432-4.608 7.128-37.931 8.128-65.631 33.307-82.332 74.836-2.011 5-3.735 9.956-5.211 14.752 12.818 9.83 28.463 15.269 44.615 15.511.422.006.84.01 1.26.01 25.135 0 46.805-12.456 58.141-33.494 3.081-5.936 5.364-12.253 6.788-18.787.976-4.1 1.76-8.266 2.518-12.3 1.035-5.5 2.012-10.7 3.437-15.766 5.536-19.269 17.459-36.083 33.812-47.681 1.864-1.309 2.827-3.56 2.485-5.811z"></path><path d="m216.766 124.194c-4.333 12.843-7.489 26.053-9.427 39.468-5.069-6.121-10.513-11.922-16.3-17.37-1.58 3.819-3.622 7.429-6.08 10.752 7.868 7.562 14.95 15.9 21.14 24.887.325.87.847 1.652 1.525 2.286 7.482 11.236 12.715 23.816 15.409 37.044 6.117 31.649-4.974 65.654-32.949 101.167-14.605-22.407-44.274-29.323-67.282-15.685l-47.9 28.472c-2.848 1.693-3.784 5.374-2.092 8.222l9.657 16.246-23.38 13.9c-2.868 1.66-3.848 5.33-2.188 8.198s5.33 3.848 8.198 2.188c.041-.024.082-.048.122-.072l23.379-13.9 19.311 32.491-23.38 13.9c-2.848 1.693-3.785 5.375-2.091 8.224 1.693 2.848 5.375 3.785 8.223 2.091l23.38-13.9 9.656 16.245c1.693 2.848 5.375 3.785 8.224 2.091l47.9-28.471c23.65-14.094 31.428-44.671 17.388-68.353l-.544-.914c32.326-39.625 45.164-78.105 38.146-114.413-2.96-14.643-8.722-28.575-16.968-41.032 1.243-15.164 4.126-30.148 8.6-44.69-3.508-2.708-6.749-5.746-9.677-9.072z"></path></svg> 