<?xml version="1.0" encoding="UTF-8"?> <!-- Generator: Adobe Illustrator 23.0.3, SVG Export Plug-In . SVG Version: 6.00 Build 0) --> <svg xmlns="http://www.w3.org/2000/svg" xmlns:xlink="http://www.w3.org/1999/xlink" version="1.1" id="Warstwa_1" x="0px" y="0px" viewBox="0 0 200 200" style="enable-background:new 0 0 200 200;" xml:space="preserve"> <style type="text/css"> .st0{fill:none;stroke:#FFFFFF;stroke-width:2;stroke-miterlimit:10;} </style> <title>ikonki</title> <path class="st0" d="M51.7,190c-0.9-0.6-1.8-1.2-2.6-1.9c-2.4-2-2.9-4.8-2.1-7.6c3.4-12.3,7-24.5,10.5-36.7 c3.8-13.1,7.5-26.3,11.3-39.4c1.6-5.4,3.3-10.8,4.8-16.2c0.2-0.9,0.1-1.8-0.3-2.6c-2.3-4.6-4.8-9.1-7.3-13.6 c-1.2-2.1-1.1-4.1,0.8-5.7c3.2-2.8,6.4-5.4,9.7-8.1c2.6-2.1,5.3-4.2,8.2-6.4c-1.6-2.7-3.3-5.2-5.2-7.7c-0.5-0.7-2.4-0.5-3.5-0.3 c-7.4,1-12.9,5.2-17.5,10.9c-4.4,5.4-8.7,11-13.5,16.1c-3.9,4.5-9.5,7.2-15.5,7.5c-0.3,0-0.6,0.2-0.9,0.2c-1.6,0.2-2.8,0.3-4-1.5 c-5.4-8.3-11.1-16.5-16.6-24.7c-1.1-1.6-2.2-3.3-3.4-5.1C4.9,47.1,5.4,47,5.8,47c9,0.3,15.5-4.3,21-10.8c4.6-5.5,8.9-11.1,13.8-16.3 c4.1-4.6,9.8-7.2,15.9-7.4c0.5-0.1,0.9-0.2,1.3-0.4l-0.7-1.2c-0.6-1-0.6-1.9,0.5-2.6c0.9-0.7,2.1-0.5,2.8,0.4c0,0.1,0.1,0.1,0.1,0.2 c2,3,4.1,6,6.1,9.1c4,6,7.9,11.9,11.9,17.9c3,4.6,6.1,9.2,9.2,13.8c1.9-0.7,4-0.2,5.3,1.4c1.4,1.9,1.3,4.4-0.1,6.2 c4.7,7.1,9.3,14.2,14,21.2c4.8,7.3,9.7,14.5,14.6,21.7c0.4,0.9,1.5,1.4,2.4,1.1c2-0.5,4.2,0.3,5.3,2.1c0.9,1.6,0.4,4-1.3,6.1 c5,7.6,9.9,15.2,15,22.7c3.5,5.2,7.1,10.4,10.6,15.6c1.5,2.3,3,4.5,4.5,6.8c0.7,0.7,0.6,1.8-0.1,2.5c-0.1,0.1-0.2,0.2-0.4,0.3 c-0.7,0.6-1.8,0.5-2.3-0.3c-0.1-0.1-0.2-0.2-0.2-0.3c-1.8-2.6-3.5-5.2-5.3-7.8c-2.5-3.7-5-7.3-7.5-11s-4.8-7.2-7.2-10.8l-9.5-14.4 c-0.7-1-1.5-1-2.4-0.4c-3.3,2-6.6,3.9-9.8,6s-5.7,1.5-7.6-1.8c-1.4-2.4-2.8-4.9-4.5-7.8c-1,3.3-1.9,5.9-2.7,8.7 c-0.7,2.5-1.3,5-2,7.5c-0.9,3.2-1.9,6.4-2.7,9.6c-0.1,0.6,0.1,1.3,0.5,1.8c4.6,4.2,9.2,8.3,13.8,12.4c1.5,1.4,2.5,3.2,2.8,5.2 c1.3,6.2,3,12.4,4.5,18.6c0.8,3.3,1.8,6.7,2.3,10c0.3,2.7-1,5.2-3.4,6.5c-0.7,0.3-1.3,0.8-2,1.2h-3.8c-0.1-0.1-0.1-0.4-0.3-0.4 c-3-1.1-4.4-3.5-5-6.6c-0.3-1.6-0.9-3.2-1.3-4.8c-1.2-5.1-2.3-10.2-3.6-15.3c-0.6-2.4-0.8-5.1-3.2-6.9c-1.8-1.4-3.5-2.8-5.1-4.3 c-5.2-4.7-10.3-9.4-15.5-14.2c-0.2,0.3-0.3,0.6-0.4,0.9c-1.1,3.7-2.1,7.4-3.1,11.2c-2.7,9.5-5.4,19-8.2,28.5 c-0.7,2.4-1.5,4.8-2.2,7.2s-2.8,3.2-4.4,4.6L51.7,190z M119.3,103.8c-1.2-1.9-2-3.4-3-4.9c-5.5-8.1-10.9-16.2-16.4-24.2 c-3-4.5-6-8.9-9-13.4c-0.8-1.3-1.4-1.2-2.4-0.4c-3.7,3-7.4,6-11.3,8.9c-1.3,0.9-1.1,1.5-0.5,2.7c1.9,3.7,3,7.9,4.8,11.6 c0.7,1.5,1.9,3.1,2.8,4.6c3.2,5.3,11.7,7.9,16.5,5.9c2.6-1.1,2.6-1.1,3.9,1.2c0.5,0.9,1,1.7,1.5,2.6c1.6,2.8,3.1,5.7,4.7,8.4 c0.3,0.5,1.3,1.2,1.6,1.1C114.8,106.4,117.1,105,119.3,103.8L119.3,103.8z"></path> <path class="st0" d="M56.5,190c1.6-1.4,3.8-2.2,4.4-4.6s1.5-4.8,2.2-7.2c2.7-9.5,5.4-19,8.2-28.5c1.1-3.7,2.1-7.5,3.1-11.2 c0.1-0.3,0.3-0.6,0.4-0.9c5.2,4.8,10.3,9.5,15.5,14.2c1.6,1.5,3.3,2.9,5.1,4.3c2.4,1.7,2.6,4.4,3.2,6.9c1.3,5.1,2.4,10.2,3.6,15.3 c0.4,1.6,1,3.2,1.3,4.8c0.6,3.1,2,5.4,5,6.6c0.1,0.1,0.2,0.3,0.3,0.4"></path> <path class="st0" d="M196.6,188.8c-0.8,0-1.6-0.1-2.4-0.1h-65.8c-0.6,0-1.1,0-1.7-0.1c-0.2-0.1-0.4-0.3-0.4-0.5 c0-0.2,0.1-0.5,0.2-0.6c2.6-2.1,5.2-4.1,7.8-6.2c1.4-1.1,2.6-2.5,4.1-3.6c0.8-0.4,1.7-0.6,2.6-0.4c1.2,0.1,2.4,0.6,3.6,0.6 c1.3,0,2.5-0.3,3.7-0.8c5-2.2,10.1-4.1,15.6-3.5c2.3,0.4,4.5,1.3,6.5,2.6c2.2,1.2,4.4,0.2,6.5,0.7c2.6,0.7,5.7,1.3,7.6,3 c3.4,3,7.2,5.5,11.3,7.4c0.3,0.1,0.6,0,0.9-0.1L196.6,188.8z"></path> <path class="st0" d="M97,63.2c8.7,0,15.8,7.1,15.8,15.8c0,2.1-0.4,4.1-1.2,6"></path> <path class="st0" d="M109.7,88.5c-5.2,7-15.1,8.4-22.1,3.2c-7-5.2-8.4-15.1-3.2-22.1c2.1-2.8,5-4.8,8.3-5.7"></path> </svg> 