<?xml version="1.0" encoding="UTF-8"?> <!-- Generator: Adobe Illustrator 23.0.3, SVG Export Plug-In . SVG Version: 6.00 Build 0) --> <svg xmlns="http://www.w3.org/2000/svg" xmlns:xlink="http://www.w3.org/1999/xlink" version="1.1" id="Warstwa_1" x="0px" y="0px" viewBox="0 0 200 200" style="enable-background:new 0 0 200 200;" xml:space="preserve"> <style type="text/css"> .st0{fill:none;stroke:#FFFFFF;stroke-width:2;stroke-miterlimit:10;} </style> <title>ikonki</title> <path class="st0" d="M27.3,88.8c18.8-11.4,37.2-22.9,56-33.7c2.9-1.6,7.7-0.2,11.6,0.4c5.3,0.9,10.5,2.5,15.7,3.7 c3.5,0.8,7.2,0.1,10.1-1.9c11.9-7.6,24-14.9,36.3-22.4l-2.7-5.4l19.5-1.5l-9.5,17.8l-3.9-5.4l-32.9,20c-2.7,1.6-5.2,3.5-8,4.9 c-1.7,0.9-3.6,1.3-5.6,1.2c-8.2-1.6-16.3-3.6-24.3-5.5c-5.1-1.3-8.4,2.4-12,4.6c-14.6,8.8-29,18-43.5,27.1 C30.3,95,29.4,94.5,27.3,88.8z"></path> <path class="st0" d="M131.6,105.5c16.2,7.4,32.4,7.6,48.6,0.1c1.7,10.5,0.2,12.3-10.4,15.3c-9.8,2.7-19.5,2.2-29.2-0.2 C132,118.5,130.8,116.4,131.6,105.5z"></path> <path class="st0" d="M70.5,152.4c0.5,11.8,0.6,11.8-10.3,15.2c-10.2,3.2-20.5,2.6-30.6-0.4c-8.2-2.4-8.8-4.1-8-14.7 C37.8,160,54,160.1,70.5,152.4z"></path> <path class="st0" d="M131.6,152.3c13.8,7.6,34.3,7.8,48.5,0.3c1.9,10.4,0.3,12.5-10.3,15.3c-9.2,2.6-19,2.5-28.2-0.2 C131,164.4,130.8,164,131.6,152.3z"></path> <path class="st0" d="M76.6,121.2c16.3,7.3,32.3,7.3,48.3,0.2c1.6,10.2,1.9,11.1-7.7,14.3c-9.9,3.2-20.4,3.4-30.4,0.7 C76.3,133.7,75.8,132.7,76.6,121.2z"></path> <path class="st0" d="M76.7,152.6c16.2,7.4,32.4,7.6,48.6,0c1.1,11.8,2,11.6-12,15.7c-10.1,3-20.5,1.9-30.5-1.8 C76.2,164,75.6,162.6,76.7,152.6z"></path> <path class="st0" d="M131.6,121.2c16.4,7.4,32.4,7.3,48.4,0.2c1.4,10.1,2,11.1-7.9,14.3s-20.5,3.4-30.4,0.6 C131.4,133.6,130.8,132.5,131.6,121.2z"></path> <path class="st0" d="M131.7,89.9c16.4,7.3,32.3,7.4,48.3,0.2c2.4,8.9,0.3,12.2-8.8,14.7c-9.6,2.7-19.7,2.8-29.3,0.2 C131.6,102.2,130.6,100.8,131.7,89.9z"></path> <path class="st0" d="M180.4,136.9c0.9,11.1,0.6,11.9-9.4,14.8c-11.3,3.4-23.4,2.9-34.4-1.4c-5.1-1.9-6-4.7-4.7-13.4 C147.9,144.3,164,144.4,180.4,136.9z"></path> <path class="st0" d="M125.3,136.9c1.1,10.7,0.5,11.8-9.3,14.7c-11.3,3.4-23.4,2.9-34.4-1.3c-5.2-1.9-6-4.3-5-13.4 C92.8,144.3,108.8,144.3,125.3,136.9z"></path> <path class="st0" d="M70.7,145.7c0,3.2-11.9,6.5-24.6,6.5s-23.8-3.4-23.8-6.6s11.1-4.9,23.8-4.9S70.7,142.5,70.7,145.7z"></path> <path class="st0" d="M124.8,114c0,3.2-11.9,6.5-24.6,6.5s-23.8-3.4-23.8-6.6s11.1-4.9,23.8-4.9S124.8,110.8,124.8,114z"></path> <path class="st0" d="M179.7,82.5c0,3.2-11.9,6.5-24.6,6.5s-23.8-3.4-23.8-6.6s11.1-4.9,23.8-4.9S179.7,79.3,179.7,82.5z"></path> </svg> 