<?xml version="1.0" encoding="UTF-8"?> <!-- Generator: Adobe Illustrator 23.0.3, SVG Export Plug-In . SVG Version: 6.00 Build 0) --> <svg xmlns="http://www.w3.org/2000/svg" xmlns:xlink="http://www.w3.org/1999/xlink" version="1.1" id="Warstwa_1" x="0px" y="0px" viewBox="0 0 409.6 421" style="enable-background:new 0 0 409.6 421;" xml:space="preserve"> <style type="text/css"> .st0{fill:none;stroke:#FFFFFF;stroke-width:6;stroke-linecap:round;stroke-miterlimit:10;} </style> <title>IKONKA</title> <g id="Business"> <g id="O-firmie"> <g id="Columbus"> <g id="Group-2-Copy-2"> <g id="solar-battery"> <path id="Shape" class="st0" d="M223.8,393h-37.9c-2.4,0-4.3-1.9-4.3-4.3l0,0V326H12.3c-2.4,0-4.3-1.9-4.3-4.3 c0-1.1,0.4-2.2,1.2-3L88,238.6l0.1-0.1l25.5-26c0.8-0.8,1.9-1.3,3-1.3h176.1c1.1,0,2.2,0.5,3.1,1.3l25.5,25.9l0.1,0.1 l78.8,80.1c1.7,1.7,1.6,4.4,0,6.1c-0.8,0.8-1.9,1.2-3,1.2H228.1v62.6C228.1,391,226.2,393,223.8,393L223.8,393z M364.8,282.7 h-320 M328.7,245.9h-248 M204.1,212.4v111.8 M305,324.3l-53.7-112.9 M164.4,211.4l-53.7,112.9 M245.7,127.9l14.7,18.7 M148.2,146.6l15.7-15.7 M204.8,132.7c-21.8,0-39.5-17.7-39.5-39.5s17.7-39.5,39.5-39.5s39.5,17.7,39.5,39.5 S226.6,132.7,204.8,132.7z M280.6,94.3h-22.2 M151.2,94.3H129 M243.5,52.1l15.7-15.7 M148,38l15.7,15.7 M203.6,39.5V17.3 M203.6,167.8l0.6-22.1"></path> </g> </g> </g> </g> </g> <line class="st0" x1="181.6" y1="326.1" x2="228.1" y2="326.1"></line> </svg> 