<?xml version="1.0" encoding="UTF-8"?> <!-- Generator: Adobe Illustrator 23.0.3, SVG Export Plug-In . SVG Version: 6.00 Build 0) --> <svg xmlns="http://www.w3.org/2000/svg" xmlns:xlink="http://www.w3.org/1999/xlink" version="1.1" id="Layer_1" x="0px" y="0px" viewBox="0 0 32 32" style="enable-background:new 0 0 32 32;" xml:space="preserve"> <style type="text/css"> .st0{fill:#4152A0;} </style> <title></title> <g> <path class="st0" d="M26.1,7c0,0-4.1-0.7-5.2-1.1c-1.6-0.5-3.2-1.2-4.5-2.3c-0.1-0.1-0.2-0.1-0.3-0.1l0,0c-0.1,0-0.3,0-0.4,0.1 c-1.3,1.1-2.9,1.8-4.5,2.3C10,6.3,6,7,5.9,7C5.7,7,5.5,7.2,5.5,7.5c0,8.1,0.1,11.8,2.6,15.6c2.1,3.3,7.5,5.2,7.7,5.3 c0.1,0,0.1,0,0.2,0h0.2c0.2-0.1,5.6-2.1,7.8-5.3c2.5-3.8,2.6-7.6,2.6-15.6C26.5,7.2,26.3,7,26.1,7z M23.1,22.6 c-1.7,2.7-6.2,4.5-7.1,4.9c-0.9-0.4-5.3-2.2-7.1-4.9c-2.2-3.4-2.4-6.4-2.4-14.7c1.7-0.2,3.4-0.6,5-1c1.6-0.5,3.1-1.3,4.5-2.3 c1.4,1,2.9,1.7,4.5,2.2l0,0c1.6,0.4,3.3,0.8,5,1C25.5,16.2,25.3,19.2,23.1,22.6L23.1,22.6z"></path> <path class="st0" d="M11.3,16.5c-0.2-0.2-0.5-0.2-0.7,0c0,0,0,0,0,0c-0.2,0.2-0.1,0.5,0.1,0.7l5,4.3c0.1,0.1,0.2,0.1,0.3,0.1h0.1 c0.1,0,0.3-0.1,0.4-0.2l5.8-8.5c0.2-0.2,0.1-0.5-0.1-0.7c-0.2-0.2-0.5-0.1-0.7,0.1l-5.5,8.1L11.3,16.5z"></path> </g> </svg> 