<?xml version="1.0" encoding="UTF-8"?> <svg xmlns="http://www.w3.org/2000/svg" viewBox="0 0 82.22 65.19"><defs><style>.cls-1,.cls-2{fill:none;stroke:#4152a0;stroke-miterlimit:10;}.cls-2{stroke-linecap:round;stroke-width:4px;}</style></defs><title>456Zasób 1</title><g id="Warstwa_2" data-name="Warstwa 2"><g id="Warstwa_1-2" data-name="Warstwa 1"><path class="cls-1" d="M.65,30.32.5,38.57A5.43,5.43,0,0,0,6,44.07h6.87a13.2,13.2,0,0,1,9.29,3.81L38.05,63.64a3.58,3.58,0,0,0,6.1-2.5V30.32"></path><path class="cls-1" d="M.69,30.05.54,23C.48,20.36,2.94,18.23,6,18.23h6.86A14.4,14.4,0,0,0,22.15,15L38.08,1.4c2.25-1.92,6.11-.56,6.11,2.15v26.5"></path><line class="cls-2" x1="59.16" y1="18.61" x2="80.12" y2="39.57"></line><line class="cls-2" x1="59.25" y1="39.5" x2="80.22" y2="18.54"></line></g></g></svg> 