<?xml version="1.0" encoding="UTF-8"?> <svg xmlns="http://www.w3.org/2000/svg" id="Warstwa_1" data-name="Warstwa 1" viewBox="0 0 409.6 421"><defs><style>.cls-1{fill:none;stroke:#4152a0;stroke-miterlimit:10;stroke-width:6px;}.cls-2{font-size:88.39px;fill:#4152a0;font-family:Lato-Regular, Lato;}.cls-3{letter-spacing:-0.03em;}</style></defs><title>ikonka</title><path class="cls-1" d="M66.24,412C52.16,393.72,46.52,372.28,43,350c-.68-4.33-.93-8.75-1.94-13a18.05,18.05,0,0,0-3.61-7.3c-9.9-11.59-14.23-25.3-15.3-40.13C21,273.52,23.54,258,30.59,243.33c.46-1,.67-2.76.11-3.37-8.8-9.76-8.09-20.79-3.87-31.9a31.81,31.81,0,0,1,7.69-11.35c6.8-6.45,15.23-6.89,23.33-1.06,4.54,3.27,7.5,3,12-.08,20.7-13.86,43.85-21.57,68.34-25.24,35.15-5.27,69.71-3,103.27,9.38A109.78,109.78,0,0,1,275,199c8.71-8.34,18.07-15.44,29.44-19.64s23-3,35.53-2a79.32,79.32,0,0,1-6.8,5.57c-8.64,5.55-11.62,14.07-12.83,23.6a5,5,0,0,1-.06.77c-1.44,4.87.63,7.28,5,9.76,17.27,9.73,30.32,23.86,40,41.07,1.84,3.28,3.82,4.34,7.54,4.16,7.69-.37,15.41-.11,23.52-.11.61,13.42,1.9,26.37-1.33,39.22-2.31,9.19-8.9,15.22-15.58,21.14-27.3,24.2-59.41,39.23-94.22,48.95-3.71,1-5.62,2.35-5.31,6.36.76,10,1.28,20,2.11,30,.17,2,.2,3.45-2,4H225.82c-4.93-7.24-10-14.37-14.7-21.77-1.61-2.55-3.23-3.38-6.18-3.21a368.48,368.48,0,0,1-68-2.16c-5.2-.66-10.36-1.55-16.58-2.48L123.56,412Z"></path><path class="cls-1" d="M98.35,79.14C98.15,39.56,130.47,7,170.28,6.67s72.41,32,72.68,72a72.45,72.45,0,0,1-72,72.71C131.22,151.67,98.56,119.14,98.35,79.14Z"></path><path class="cls-1" d="M224.43,196.77l-4,11.33c-31.79-10.41-63.4-10.45-95.32.32-.73-1.86-1.45-3.58-2.09-5.34s-1.23-3.63-2-6C155.46,185.34,189.67,185.33,224.43,196.77Z"></path><path class="cls-1" d="M309.06,259.07a10.61,10.61,0,0,1,10-10.32c5.35-.13,10.47,4.93,10.43,10.3a10.74,10.74,0,0,1-10.21,10.13A10.61,10.61,0,0,1,309.06,259.07Z"></path><text class="cls-2" transform="translate(135.02 106.13) scale(0.98 1)">z<tspan class="cls-3" x="39.95" y="0">ł</tspan></text></svg> 