<?xml version="1.0" encoding="UTF-8"?> <svg xmlns="http://www.w3.org/2000/svg" viewBox="0 0 65.46 65.46"><defs><style>.cls-1,.cls-5{fill:#fff;}.cls-1,.cls-2,.cls-3{stroke:#4152a0;}.cls-1,.cls-2,.cls-3,.cls-5{stroke-miterlimit:10;}.cls-2,.cls-3{fill:none;}.cls-3{stroke-width:3px;}.cls-4{fill:#4152a0;}.cls-5{stroke:#fff;stroke-width:0.5px;}</style></defs><title>456Zasób 2</title><g id="Warstwa_2" data-name="Warstwa 2"><g id="Warstwa_1-2" data-name="Warstwa 1"><circle class="cls-1" cx="32.8" cy="32.91" r="21.48"></circle><circle class="cls-2" cx="32.82" cy="32.71" r="26.94"></circle><rect class="cls-1" x="29.32" y="0.5" width="7.05" height="5.47"></rect><rect class="cls-1" x="28.29" y="59.5" width="7.05" height="5.47" transform="translate(63.64 124.46) rotate(180)"></rect><rect class="cls-1" x="-0.29" y="29.22" width="7.05" height="5.47" transform="translate(-28.72 35.18) rotate(-90)"></rect><rect class="cls-1" x="58.7" y="30.24" width="7.05" height="5.47" transform="translate(95.2 -29.25) rotate(90)"></rect><rect class="cls-1" x="8.56" y="8.79" width="7.05" height="5.47" transform="translate(-4.61 11.92) rotate(-45)"></rect><rect class="cls-1" x="49.55" y="51.23" width="7.05" height="5.47" transform="translate(128.77 54.59) rotate(135)"></rect><rect class="cls-1" x="7.93" y="50.04" width="7.05" height="5.47" transform="translate(-17.76 98.19) rotate(-135)"></rect><rect class="cls-1" x="50.37" y="9.04" width="7.05" height="5.47" transform="translate(24.11 -34.66) rotate(45)"></rect><path class="cls-3" d="M23.49,38.05A9.82,9.82,0,0,1,37.38,24.16"></path><polygon class="cls-4" points="39.26 21.28 41.44 28.41 34.86 25.77 39.26 21.28"></polygon><rect class="cls-5" x="29.87" y="1" width="6" height="7"></rect><rect class="cls-5" x="28.78" y="57.42" width="6" height="7"></rect><rect class="cls-5" x="1.01" y="28.92" width="7" height="6"></rect><rect class="cls-5" x="57.45" y="29.97" width="7" height="6"></rect><rect class="cls-5" x="10.03" y="8.91" width="6" height="7" transform="translate(-4.96 12.85) rotate(-45)"></rect><rect class="cls-5" x="49.45" y="9.7" width="7" height="6" transform="translate(6.53 41.16) rotate(-45)"></rect><rect class="cls-5" x="8.84" y="48.84" width="7" height="6" transform="translate(-33.04 23.91) rotate(-45)"></rect><rect class="cls-5" x="49.22" y="49.55" width="6" height="7" transform="translate(-22.22 52.46) rotate(-45)"></rect></g></g></svg> 