<?xml version="1.0" encoding="UTF-8"?> <!-- Generator: Adobe Illustrator 22.1.0, SVG Export Plug-In . SVG Version: 6.00 Build 0) --> <svg xmlns="http://www.w3.org/2000/svg" xmlns:xlink="http://www.w3.org/1999/xlink" version="1.1" id="Warstwa_1" x="0px" y="0px" viewBox="0 0 409.6 421" style="enable-background:new 0 0 409.6 421;" xml:space="preserve"> <style type="text/css"> .st0{fill:none;stroke:#4152a0;;stroke-width:5;stroke-linecap:round;stroke-miterlimit:10;} .st1{enable-background:new;} .st2{fill:#4152a0;} </style> <title>ikonka</title> <path class="st0" d="M292.6,377.4c-68.8,37.7-169.6,29.6-232.6-46C-2.5,256.6,1.4,146.6,70.9,77c72.1-72.2,193.2-75.8,269.1,1.4 l31.7-33l22,112.5l-111.5-19.2l28.3-29.5C276.1,69.8,203.7,45.5,137.2,80c-69.9,36.3-98.6,117.9-66.4,190.3 c32.6,73.6,120.8,109.5,199,72C277.4,354,284.9,365.6,292.6,377.4z"></path> <path class="st0" d="M351.9,203.7h39.2c1.5,0,2.7,0.1,2.8,2.1c0.2,13.9-1,27.7-3.7,41.3c-2.7-0.6-5.1-1.1-7.5-1.7l-30.3-7.3 c-1.4-0.3-2.4-0.5-2.2-2.6c0.7-10,1.1-20,1.7-29.9C351.7,205.1,351.8,204.6,351.9,203.7z"></path> <path class="st0" d="M332.2,286.4l11.5-25.4c6.9,2.7,13.8,5.5,20.7,8.2c5.1,2,10.2,4,15.4,5.9c1.4,0.5,2.3,1.1,1.6,2.8 c-4.6,11.7-10.2,22.9-17,33.5L332.2,286.4z"></path> <path class="st0" d="M316.6,362.7l-22.8-34.9l19.6-17.8l31.8,26.7C336.6,346.3,327,355,316.6,362.7z"></path> <g class="st1"> <path class="st2" d="M133.8,167.2c2.9,0,5.6,0.4,8.2,1.3c2.6,0.8,4.9,2.1,6.8,3.8c2,1.7,3.5,3.8,4.7,6.4c1.2,2.6,1.7,5.6,1.7,9 c0,2.9-0.4,5.5-1.3,8c-0.9,2.5-2,4.8-3.5,7.1c-1.5,2.3-3.2,4.5-5.2,6.6c-2,2.1-4,4.3-6.2,6.6l-23.4,24.4c1.1-0.3,2.3-0.5,3.5-0.6 c1.2-0.1,2.4-0.2,3.7-0.2h32.3c0.6,0,1,0.2,1.3,0.5c0.3,0.3,0.5,0.8,0.5,1.3v3h-48.3v-1.8c0-0.4,0.1-0.8,0.3-1.2 c0.2-0.4,0.4-0.8,0.7-1.1l25.5-26.4c2.1-2.2,4.1-4.3,5.9-6.4s3.4-4.1,4.7-6.2c1.3-2.1,2.4-4.2,3.1-6.4c0.8-2.2,1.1-4.5,1.1-7 c0-2.8-0.5-5.2-1.4-7.3c-0.9-2.1-2.1-3.8-3.7-5.1c-1.5-1.3-3.3-2.3-5.3-3c-2-0.6-4.1-1-6.3-1c-2.4,0-4.5,0.4-6.5,1.1 c-2,0.7-3.8,1.8-5.3,3.1c-1.5,1.3-2.8,2.9-3.8,4.7c-1,1.8-1.7,3.8-2.1,6c-0.4,1.3-1.1,1.9-2.1,1.9c-0.1,0-0.2,0-0.3,0 c-0.1,0-0.2,0-0.3,0l-2.5-0.4c0.4-3.3,1.3-6.2,2.6-8.7c1.3-2.6,3-4.7,5-6.5c2-1.8,4.3-3.1,7-4C127.9,167.6,130.8,167.2,133.8,167.2 z"></path> <path class="st2" d="M208.7,218.3h13.7v2.8c0,0.4-0.1,0.7-0.3,0.9c-0.2,0.2-0.6,0.4-1.1,0.4h-12.3v21.9h-4.5v-21.9h-35.3 c-0.5,0-0.9-0.1-1.2-0.4c-0.3-0.2-0.5-0.5-0.6-0.9l-0.5-2.5l37.6-50.7h4.5V218.3z M204.2,178.4c0-0.6,0-1.3,0.1-1.9 c0-0.7,0.1-1.4,0.2-2.1l-32.3,44h32V178.4z"></path> <path class="st2" d="M253.6,244.3v-78.5h5v34c2.4-3.1,5.2-5.5,8.3-7.3c3.1-1.8,6.6-2.7,10.5-2.7c2.9,0,5.4,0.5,7.6,1.4 c2.2,0.9,4,2.3,5.5,4c1.4,1.8,2.5,3.9,3.3,6.4c0.7,2.5,1.1,5.3,1.1,8.4v34.3h-5V210c0-5-1.1-9-3.4-11.8s-5.7-4.3-10.4-4.3 c-3.5,0-6.7,0.9-9.6,2.7c-3,1.8-5.6,4.3-7.9,7.5v40.2H253.6z"></path> </g> </svg> 