<svg id="Warstwa_1" data-name="Warstwa 1" xmlns="http://www.w3.org/2000/svg" viewBox="0 0 200 200"><defs><style>.cls-1{fill:none;stroke:#eb6608;stroke-miterlimit:10;stroke-width:2px;}</style></defs><title>ikonki</title><path class="cls-1" d="M27.31,88.77c18.78-11.41,37.17-22.91,56-33.67,2.86-1.63,7.74-.22,11.58.44,5.3.9,10.49,2.46,15.74,3.68a12.42,12.42,0,0,0,10.08-1.94c11.9-7.61,24-14.87,36.29-22.41l-2.69-5.4L173.83,28l-9.48,17.81-3.85-5.39-32.94,20c-2.66,1.63-5.2,3.51-8,4.87A9.5,9.5,0,0,1,114,66.44c-8.16-1.64-16.26-3.59-24.35-5.55-5.12-1.25-8.4,2.4-12,4.59-14.61,8.85-29,18-43.51,27.07C30.25,95,29.44,94.52,27.31,88.77Z"/><path class="cls-1" d="M131.57,105.5c16.2,7.45,32.39,7.63,48.57.07,1.73,10.47.24,12.35-10.35,15.25-9.82,2.69-19.51,2.18-29.2-.23C132,118.47,130.84,116.36,131.57,105.5Z"/><path class="cls-1" d="M70.49,152.43c.53,11.78.55,11.84-10.31,15.23-10.22,3.19-20.53,2.57-30.6-.42-8.23-2.43-8.84-4.08-8-14.74C37.81,160,54,160.06,70.49,152.43Z"/><path class="cls-1" d="M131.58,152.25c13.75,7.58,34.35,7.8,48.51.26,1.86,10.38.29,12.5-10.26,15.28a50.6,50.6,0,0,1-28.19-.18C131,164.38,130.83,164,131.58,152.25Z"/><path class="cls-1" d="M76.62,121.17c16.33,7.32,32.31,7.27,48.29.23,1.62,10.2,1.89,11.1-7.73,14.27a53.69,53.69,0,0,1-30.4.69C76.27,133.71,75.78,132.7,76.62,121.17Z"/><path class="cls-1" d="M76.67,152.55c16.2,7.44,32.38,7.55,48.57,0,1.07,11.79,2,11.55-12,15.68-10.11,3-20.54,1.9-30.51-1.82C76.18,164,75.64,162.6,76.67,152.55Z"/><path class="cls-1" d="M131.61,121.15c16.35,7.38,32.37,7.29,48.38.22,1.39,10.12,2,11.1-7.93,14.32a53.17,53.17,0,0,1-30.45.59C131.41,133.6,130.83,132.46,131.61,121.15Z"/><path class="cls-1" d="M131.67,89.94c16.35,7.27,32.27,7.38,48.25.15,2.4,8.91.28,12.24-8.77,14.67a55.19,55.19,0,0,1-29.3.21C131.59,102.21,130.61,100.81,131.67,89.94Z"/><path class="cls-1" d="M180.35,136.85c.93,11.09.55,11.86-9.4,14.83a53,53,0,0,1-34.4-1.39c-5.14-1.91-6-4.74-4.72-13.44C147.88,144.34,164,144.38,180.35,136.85Z"/><path class="cls-1" d="M125.33,136.94c1.07,10.74.52,11.79-9.25,14.72a53.33,53.33,0,0,1-34.43-1.31c-5.19-1.91-6-4.28-5-13.41C92.78,144.31,108.85,144.28,125.33,136.94Z"/><path class="cls-1" d="M70.67,145.67c0,3.17-11.93,6.5-24.59,6.5s-23.79-3.45-23.79-6.63,11.14-4.87,23.79-4.87S70.67,142.49,70.67,145.67Z"/><path class="cls-1" d="M124.76,114c0,3.18-11.93,6.5-24.59,6.5s-23.79-3.45-23.79-6.62S87.52,109,100.17,109,124.76,110.82,124.76,114Z"/><path class="cls-1" d="M179.67,82.5c0,3.18-11.92,6.5-24.58,6.5s-23.79-3.45-23.79-6.62,11.13-4.88,23.79-4.88S179.67,79.32,179.67,82.5Z"/></svg>