<svg id="Warstwa_1" data-name="Warstwa 1" xmlns="http://www.w3.org/2000/svg" viewBox="0 0 409.6 421"><defs><style>.cls-1{fill:none;stroke:#ea6705;stroke-linecap:round;stroke-miterlimit:10;stroke-width:6px;}</style></defs><title>ikonka</title><g id="Business"><g id="Abonament-elastyczny-2"><g id="Korzysci"><g id="Group-2-Copy"><g id="shield"><path id="Shape" class="cls-1" d="M318.34,131.47a8.14,8.14,0,0,0-12.71,0L186.13,269.91l-65.57-76a8.15,8.15,0,0,0-12.71,0,11.62,11.62,0,0,0,0,14.73L179.77,292a8.16,8.16,0,0,0,12.71,0L318.34,146.19A11.6,11.6,0,0,0,318.34,131.47Z"/><path id="Shape-2" data-name="Shape" class="cls-1" d="M351.46,63.32,206.87,13.06a6.41,6.41,0,0,0-4.15,0L58.13,63.32c-3.05,1.06-5.15,4.32-5.15,8V255.62c0,74.07,97.48,140,149.68,158.77a6.37,6.37,0,0,0,4.28,0c52.2-18.83,149.68-84.7,149.68-158.77V71.34A8.32,8.32,0,0,0,351.46,63.32Z"/></g></g></g></g></g></svg>