<svg id="Warstwa_1" data-name="Warstwa 1" xmlns="http://www.w3.org/2000/svg" viewBox="0 0 409.6 421"><defs><style>.cls-1{fill:none;stroke:#ea6705;stroke-linecap:round;stroke-miterlimit:10;stroke-width:6px;}</style></defs><title>GT</title><path class="cls-1" d="M157,247H184.7V174.22q0-5.34.3-11.19L168.65,176.6a10.37,10.37,0,0,1-3.17,1.83,9.54,9.54,0,0,1-3.07.55,9.27,9.27,0,0,1-4.61-1.14,9.83,9.83,0,0,1-3-2.43l-9.7-12.88,45-37.74H215.4V247h23.78v22.19H157Z"/><path class="cls-1" d="M180.59,408.87c-11.83-2.09-23.81-3.54-35.45-6.38-34.1-8.34-63.86-24.94-90.64-50.42-.46,5.09-.71,8.65-1.13,12.2-.93,8-6.13,12.66-14.1,12.73s-14.11-4.45-14.33-12.37c-.52-18.24-.49-36.52-.05-54.76.18-7.39,5.17-12.18,12.56-12.35q26.92-.6,53.89,0c7.77.17,12.31,5.08,13.06,12.92s-3.63,13.7-11.28,15.5c-3,.71-6.14,1.07-10.46,1.81a153.29,153.29,0,0,0,69.43,38.54c95.08,24.15,186.64-36.91,201.51-134.15,13.41-87.66-52-172.78-139.91-182.49C162.6,44,118.48,58.58,81,93.58c-10.16,9.48-20.86,9.8-28.72,1.09-7.23-8-5.91-19.06,3.59-28,33.45-31.6,72.91-50,118.89-54.1,2-.17,41.39-2.28,66.11,4.58,88.64,21.81,150.11,100.11,150.76,191.55.64,91.15-59.46,170-147.52,193-12.11,3.17-24.62,4.81-36.95,7.16Z"/></svg>