<svg id="Warstwa_1" data-name="Warstwa 1" xmlns="http://www.w3.org/2000/svg" viewBox="0 0 409.6 421"><defs><style>.cls-1{fill:none;stroke:#ea6705;stroke-linecap:round;stroke-miterlimit:10;stroke-width:6px;}</style></defs><title>GT</title><g id="Business"><g id="Abonament-elastyczny-2"><g id="Korzysci"><g id="Group-2-Copy"><g id="shield"><path id="Shape-2" class="cls-1" d="M352.46,64.32,207.87,14.06a6.41,6.41,0,0,0-4.15,0L59.13,64.32c-3.05,1.06-5.15,4.32-5.15,8v184.3c0,74.07,97.48,140,149.68,158.77a6.41,6.41,0,0,0,4.28,0c52.2-18.83,149.68-84.7,149.68-158.77V72.34A8.33,8.33,0,0,0,352.46,64.32Z"/></g></g></g></g></g><path class="cls-1" d="M111,247H138.7V174.22q0-5.34.3-11.19L122.65,176.6a10.37,10.37,0,0,1-3.17,1.83,9.54,9.54,0,0,1-3.07.55,9.27,9.27,0,0,1-4.61-1.14,9.83,9.83,0,0,1-3-2.43l-9.7-12.88,45-37.74H169.4V247h23.78v22.19H111Z"/><path class="cls-1" d="M299.76,137.57a15.91,15.91,0,0,1-1,5.75,11.66,11.66,0,0,1-3.12,4.5,14.27,14.27,0,0,1-5.6,3,28.93,28.93,0,0,1-8.32,1H247.26l-4.06,23.88c2.71-.46,5.31-.81,7.82-1s5-.35,7.33-.35a54.14,54.14,0,0,1,20.11,3.47,42.3,42.3,0,0,1,14.66,9.46,39.35,39.35,0,0,1,9,14.06,49.07,49.07,0,0,1,3,17.29A53,53,0,0,1,301,239.75a49.23,49.23,0,0,1-11.44,16.49A51.47,51.47,0,0,1,272.07,267a62.83,62.83,0,0,1-22.24,3.81,58.6,58.6,0,0,1-13.42-1.49,64.37,64.37,0,0,1-22.33-9.85,67.79,67.79,0,0,1-8.62-7.08L215,239.7a10.29,10.29,0,0,1,3.46-3,9,9,0,0,1,4.26-1,10.41,10.41,0,0,1,5.6,1.63l5.75,3.57a42.59,42.59,0,0,0,7.28,3.51,29,29,0,0,0,10.3,1.59,24.8,24.8,0,0,0,10.5-2,18.93,18.93,0,0,0,7.08-5.55,22.46,22.46,0,0,0,4-8.22,39.22,39.22,0,0,0,1.24-10.06q0-10.5-5.94-16t-16.84-5.5a51.6,51.6,0,0,0-19,3.66l-19-5.15,12.28-72.21h73.9Z"/></svg>