<svg id="Warstwa_1" data-name="Warstwa 1" xmlns="http://www.w3.org/2000/svg" viewBox="0 0 409.6 421"><defs><style>.cls-1{fill:none;stroke:#ea6705;stroke-linecap:round;stroke-miterlimit:10;stroke-width:6px;}</style></defs><title>ikonka</title><g id="Business"><g id="Abonament-elastyczny-2"><g id="Korzysci"><g id="Group-2-Copy-3"><g id="bio-energy"><path id="Shape" class="cls-1" d="M195.47,20.24a8.41,8.41,0,0,0-7.76-5.19c-63,0-120.45,19.86-153.69,53.1a77.07,77.07,0,0,0,109,109c14.37-14.37,18.74-40.91,23.35-69,5-30.28,10.13-61.61,27.28-78.77A8.36,8.36,0,0,0,195.47,20.24Z"/><path id="Shape-2" data-name="Shape" class="cls-1" d="M338.8,317.23c0,30.38-45.26,83.93-134.3,83.93C86.92,401.16,45,318.79,45,241.58c0-.41-6.69-83.64,85-181.64"/><path id="Shape-3" data-name="Shape" class="cls-1" d="M389.16,199.71H288.44a8.4,8.4,0,0,0-8.4,8.4v50.36a58.76,58.76,0,0,0,117.52,0V208.11A8.4,8.4,0,0,0,389.16,199.71Z"/><path id="Shape-4" data-name="Shape" class="cls-1" d="M313.62,199.71V141a8.4,8.4,0,1,0-16.79,0v58.75"/><path id="Shape-5" data-name="Shape" class="cls-1" d="M380.77,199.71V141A8.4,8.4,0,1,0,364,141v58.75"/></g></g></g></g></g></svg>