<svg xmlns="http://www.w3.org/2000/svg" viewBox="0 0 508.15 159.26"><defs><style>.cls-1{isolation:isolate;}.cls-2{fill:#1d1d1b;opacity:0.2;mix-blend-mode:multiply;}.cls-3{fill:#4152a0;}.cls-4{fill:#3c4788;}.cls-5{fill:#6ad;}.cls-6{fill:#4b7eb3;}.cls-7{fill:#fff;}</style></defs><g class="cls-1"><g id="Слой_2" data-name="Слой 2"><g id="Слой_1-2" data-name="Слой 1"><g id="Base"><path class="cls-2" d="M63.46,7.51,17.94,53a42.91,42.91,0,0,0,0,60.7l45.52,45.53L109,113.73A42.92,42.92,0,0,0,109,53Z"/><g id="Base-2" data-name="Base"><path class="cls-3" d="M58.09,0,12.57,45.52a42.92,42.92,0,0,0,0,60.7l45.52,45.52,45.53-45.52a42.92,42.92,0,0,0,0-60.7Z"/></g></g><path id="Shadow_1" data-name="Shadow 1" class="cls-4" d="M62.35,19.47,73.73,30.85,39.59,65a21.46,21.46,0,0,0,0,30.35l34.14,34.14L62.35,140.86,28.21,106.72a37.55,37.55,0,0,1,0-53.11Z"/><path id="Shadow_2" data-name="Shadow 2" class="cls-4" d="M85.11,42.23,96.49,53.61a37.55,37.55,0,0,1,0,53.11L85.11,118.1l-12.9-12.9L83.59,93.82C91.44,86,91.94,76.23,85.1,68.14l0,0-25,25-6.83-6.83a8.59,8.59,0,0,1,0-12.14Z"/><g id="Edges"><path id="Left_side" data-name="Left side" class="cls-5" d="M58.06,125.84l0,10.73L23.88,102.43a37.52,37.52,0,0,1-10.6-32A37.43,37.43,0,0,0,23.91,91.7Z"/><polygon class="cls-6" points="58.09 125.84 58.06 136.57 69.44 125.19 69.47 114.46 58.09 125.84"/><path class="cls-6" d="M69.44,15.83l0,10.73L35.26,60.7a21.37,21.37,0,0,0-5.59,9.75A21.46,21.46,0,0,1,35.3,50L64.06,21.21Z"/><path class="cls-5" d="M55.81,78l0,10.73L48.94,82a8.59,8.59,0,0,1-2.45-7V65.37a8.49,8.49,0,0,0,1.85,5.11,8.72,8.72,0,0,0,.65.73Z"/><polygon class="cls-5" points="67.95 90.18 67.92 100.91 80.82 113.81 80.85 103.08 67.95 90.18"/><path class="cls-6" d="M92.24,102.43,80.85,113.8l.05-10.73L92.27,91.7a37.33,37.33,0,0,0,10.6-21.07A37.5,37.5,0,0,1,92.24,102.43Z"/><path class="cls-6" d="M85.32,68.38a15.9,15.9,0,0,1-.59,2.17c-.18-.51-.37-1-.59-1.52a21.89,21.89,0,0,0-3.3-5.18l0-.06-25,25,0-10.73,25-25,.06.06C84.9,57.87,86.38,63.2,85.32,68.38Z"/></g><g id="Top"><path class="cls-7" d="M80.85,27.2,92.23,38.58a37.56,37.56,0,0,1,0,53.12L80.85,103.08,68,90.18,79.34,78.8c7.84-7.85,8.34-17.59,1.5-25.68l0-.06-25,25L49,71.21a8.59,8.59,0,0,1,0-12.14Z"/><path class="cls-7" d="M58.09,4.44,69.47,15.82,35.33,50a21.45,21.45,0,0,0,0,30.34l34.14,34.15L58.09,125.84,24,91.7a37.56,37.56,0,0,1,0-53.12Z"/></g><path class="cls-7" d="M180.66,64.26h-2.27a15.51,15.51,0,0,0-2.65-5.12q-2-2.73-3.86-3c-.62-.08-1.37-.14-2.22-.18s-1.84-.06-2.93-.06h-7.2V73.16h4.95a10.36,10.36,0,0,0,3.49-.47,5.52,5.52,0,0,0,2.12-1.44,6.23,6.23,0,0,0,1.11-2.07,12.66,12.66,0,0,0,.65-3h2.27v16.9h-2.27a13.49,13.49,0,0,0-.62-3,7.7,7.7,0,0,0-1.14-2.45,4.53,4.53,0,0,0-2.29-1.53,11.9,11.9,0,0,0-3.32-.41h-4.95V90.42a4,4,0,0,0,.39,1.78,2.88,2.88,0,0,0,1.4,1.27,10.59,10.59,0,0,0,2,.51,15.09,15.09,0,0,0,2.3.34v2.15H147V94.32l2.42-.2a7.3,7.3,0,0,0,2-.35,2.59,2.59,0,0,0,1.31-1.16,4,4,0,0,0,.41-1.86v-31a4.52,4.52,0,0,0-.33-1.78,2.59,2.59,0,0,0-1.39-1.25,10.4,10.4,0,0,0-2.2-.7,16.77,16.77,0,0,0-2.19-.36V53.51h33.69Z"/><path class="cls-7" d="M227.28,79.33c-.48.06-1.14.16-1.95.29a7.28,7.28,0,0,0-2,.56,2.61,2.61,0,0,0-1.29,1.29,4.68,4.68,0,0,0-.38,2v3.33c0,2.42,0,4.06,0,4.9s.07,1.55.11,2.09a46.1,46.1,0,0,1-8,2.79,33.57,33.57,0,0,1-7.84,1A20.9,20.9,0,0,1,198,96a19.67,19.67,0,0,1-6.66-4.39,21.26,21.26,0,0,1-4.58-7,24,24,0,0,1-1.69-9.21,25,25,0,0,1,1.62-9.1A21.61,21.61,0,0,1,191.32,59a20.06,20.06,0,0,1,6.85-4.71,21.73,21.73,0,0,1,8.52-1.68,20.33,20.33,0,0,1,6.33.88,22.39,22.39,0,0,1,4.75,2.12L219,53.51h2.42l.27,15h-2.48a43.48,43.48,0,0,0-1.58-4.89,17.21,17.21,0,0,0-2.42-4.31,11.29,11.29,0,0,0-3.62-3,10.74,10.74,0,0,0-5.11-1.14,12.41,12.41,0,0,0-5.79,1.32,12.73,12.73,0,0,0-4.43,3.92,18.49,18.49,0,0,0-2.84,6.28,32.45,32.45,0,0,0-1,8.39,29.08,29.08,0,0,0,1,7.71A19.69,19.69,0,0,0,196.28,89a13.91,13.91,0,0,0,4.7,4.24,13.11,13.11,0,0,0,6.4,1.54,13.79,13.79,0,0,0,4.87-.82,8.8,8.8,0,0,0,3.1-1.72,22.48,22.48,0,0,0,.26-3.18c0-1.07,0-2,0-2.72V84a6.78,6.78,0,0,0-.34-2.25,2.41,2.41,0,0,0-1.44-1.44,9.94,9.94,0,0,0-2.71-.68c-1.14-.15-2-.25-2.68-.29V77.12h18.83Z"/><path class="cls-7" d="M284.22,83.81l-.82,12.66H247.74V94.32c.61,0,1.41-.13,2.42-.26a8.19,8.19,0,0,0,2-.41,2.7,2.7,0,0,0,1.35-1.18,4,4,0,0,0,.38-1.85V59.75a4.35,4.35,0,0,0-.34-1.78,2.55,2.55,0,0,0-1.39-1.25,10.1,10.1,0,0,0-2.19-.7,16.6,16.6,0,0,0-2.2-.36V53.51H281V63.86h-2.27A13.85,13.85,0,0,0,276.09,59c-1.34-1.72-2.62-2.67-3.83-2.83-.62-.08-1.37-.14-2.24-.18s-1.85-.06-3-.06h-6.75V73h4.84a9.73,9.73,0,0,0,3.4-.43,4.83,4.83,0,0,0,1.9-1.47,7.92,7.92,0,0,0,1.13-2.35A14.1,14.1,0,0,0,272.2,66h2.27V82.78H272.2a13.1,13.1,0,0,0-.65-3.07,8,8,0,0,0-1.1-2.35,4.4,4.4,0,0,0-2.14-1.54,11.25,11.25,0,0,0-3.16-.36h-4.84V88.33a13.53,13.53,0,0,0,.27,3,2.8,2.8,0,0,0,1.06,1.7,4.54,4.54,0,0,0,2.15.74,34.54,34.54,0,0,0,3.87.16h2.64a26.45,26.45,0,0,0,2.75-.12,15.2,15.2,0,0,0,2.38-.44,3.71,3.71,0,0,0,1.74-.86,19.23,19.23,0,0,0,2.92-4.4,29.19,29.19,0,0,0,2-4.35Z"/><path class="cls-7" d="M333.93,55.66a13.57,13.57,0,0,0-2.6.48,9.8,9.8,0,0,0-2.52.94A4.3,4.3,0,0,0,327.35,60a31.52,31.52,0,0,0-.38,5.45V96.89h-2.64l-26-35.15V83.9a26.19,26.19,0,0,0,.47,5.73,5.3,5.3,0,0,0,1.43,2.84,7,7,0,0,0,2.88,1.24,17,17,0,0,0,2.88.61v2.15H288.34V94.32a17.3,17.3,0,0,0,2.75-.59,7.42,7.42,0,0,0,2.43-1A4.46,4.46,0,0,0,295,90.19a31.12,31.12,0,0,0,.39-6V63.08a8.53,8.53,0,0,0-.48-2.79,5.35,5.35,0,0,0-1.3-2.15,9.12,9.12,0,0,0-3-1.71,10.58,10.58,0,0,0-3-.77V53.51h12.27L324,86.26V65.83a26.43,26.43,0,0,0-.48-5.77,4.62,4.62,0,0,0-1.4-2.68,10.27,10.27,0,0,0-2.77-1.12,15.14,15.14,0,0,0-2.92-.6V53.51h17.47Z"/><path class="cls-7" d="M374.77,83.81,374,96.47H338.29V94.32c.6,0,1.41-.13,2.42-.26a8.31,8.31,0,0,0,2-.41A2.72,2.72,0,0,0,344,92.47a3.88,3.88,0,0,0,.38-1.85V59.75a4.52,4.52,0,0,0-.33-1.78,2.59,2.59,0,0,0-1.39-1.25,10.4,10.4,0,0,0-2.2-.7,16.77,16.77,0,0,0-2.19-.36V53.51h33.24V63.86h-2.27A14.18,14.18,0,0,0,366.64,59c-1.34-1.72-2.62-2.67-3.83-2.83-.63-.08-1.37-.14-2.24-.18s-1.86-.06-3-.06h-6.75V73h4.84a9.8,9.8,0,0,0,3.41-.43A4.73,4.73,0,0,0,361,71.07a7.68,7.68,0,0,0,1.14-2.35,14.86,14.86,0,0,0,.62-2.77H365V82.78h-2.27a13.62,13.62,0,0,0-.65-3.07A7.7,7.7,0,0,0,361,77.36a4.33,4.33,0,0,0-2.13-1.54,11.32,11.32,0,0,0-3.17-.36h-4.84V88.33a13.53,13.53,0,0,0,.27,3,2.89,2.89,0,0,0,1.06,1.7,4.62,4.62,0,0,0,2.15.74,34.74,34.74,0,0,0,3.88.16h2.63a26.66,26.66,0,0,0,2.76-.12,15.09,15.09,0,0,0,2.37-.44,3.61,3.61,0,0,0,1.74-.86,19.22,19.22,0,0,0,2.93-4.4,31.5,31.5,0,0,0,1.95-4.35Z"/><path class="cls-7" d="M422.24,96.47H410.67q-3.84-6-6.94-10.42T397,77h-4.4V90.62a4.92,4.92,0,0,0,.33,1.87,2.35,2.35,0,0,0,1.42,1.22,10.13,10.13,0,0,0,1.91.4c.91.12,1.68.19,2.3.21v2.15H380.4V94.32l2.1-.21a7.56,7.56,0,0,0,1.92-.4,2.55,2.55,0,0,0,1.32-1.15,4.07,4.07,0,0,0,.41-1.94V59.56a5.39,5.39,0,0,0-.3-1.87,2.23,2.23,0,0,0-1.43-1.24,12,12,0,0,0-2-.5,17,17,0,0,0-2.06-.29V53.51h19.83a22.54,22.54,0,0,1,5.11.56,13.58,13.58,0,0,1,4.33,1.8,9.17,9.17,0,0,1,3,3.16,9.33,9.33,0,0,1,1.12,4.71,11.71,11.71,0,0,1-.76,4.39,9,9,0,0,1-2.24,3.3,13.43,13.43,0,0,1-3.27,2.26,25.62,25.62,0,0,1-4.21,1.62q3.18,4.2,5.29,7.08t5.16,7a14.2,14.2,0,0,0,2.41,2.68,11.88,11.88,0,0,0,2.13,1.41,7.65,7.65,0,0,0,2,.61,14.64,14.64,0,0,0,2,.24Zm-15.93-32A7.83,7.83,0,0,0,397.74,56H392.6V74.4h4a9.37,9.37,0,0,0,9.75-10Z"/><path class="cls-7" d="M466.7,79.33c-.48.06-1.13.16-1.95.29a7.39,7.39,0,0,0-2,.56,2.65,2.65,0,0,0-1.29,1.29,4.68,4.68,0,0,0-.37,2v3.33c0,2.42,0,4.06,0,4.9s.06,1.55.11,2.09a46.19,46.19,0,0,1-8,2.79,33.5,33.5,0,0,1-7.84,1A20.94,20.94,0,0,1,437.46,96a19.87,19.87,0,0,1-6.66-4.39,21.09,21.09,0,0,1-4.57-7,24,24,0,0,1-1.7-9.21,25,25,0,0,1,1.62-9.1A21.61,21.61,0,0,1,430.74,59a20.1,20.1,0,0,1,6.86-4.71,21.66,21.66,0,0,1,8.52-1.68,20.37,20.37,0,0,1,6.33.88,22.62,22.62,0,0,1,4.75,2.12l1.24-2.06h2.42l.27,15h-2.48a43.42,43.42,0,0,0-1.57-4.89,17.24,17.24,0,0,0-2.43-4.31,11.29,11.29,0,0,0-3.62-3,10.71,10.71,0,0,0-5.11-1.14,12.41,12.41,0,0,0-5.79,1.32,12.7,12.7,0,0,0-4.42,3.92,18.69,18.69,0,0,0-2.85,6.28,32.45,32.45,0,0,0-1,8.39,29.08,29.08,0,0,0,1,7.71A19.48,19.48,0,0,0,435.71,89a13.73,13.73,0,0,0,4.7,4.24,13.08,13.08,0,0,0,6.39,1.54,13.79,13.79,0,0,0,4.87-.82,9,9,0,0,0,3.11-1.72,22.47,22.47,0,0,0,.25-3.18c0-1.07,0-2,0-2.72V84a6.77,6.77,0,0,0-.35-2.25,2.38,2.38,0,0,0-1.44-1.44,9.84,9.84,0,0,0-2.71-.68c-1.14-.15-2-.25-2.68-.29V77.12H466.7Z"/><path class="cls-7" d="M508.15,55.66a6.77,6.77,0,0,0-1.64.41,6.06,6.06,0,0,0-1.6.74,11.73,11.73,0,0,0-1.61,1.12A18.94,18.94,0,0,0,501.67,60c-1.57,2.22-3,4.47-4.36,6.75s-3,5.18-5,8.69a16.23,16.23,0,0,0-1.49,3.11,12.46,12.46,0,0,0-.36,3.43v8.2a3.77,3.77,0,0,0,.44,1.89,3,3,0,0,0,1.5,1.29,17.39,17.39,0,0,0,2.27.59,15.7,15.7,0,0,0,2.63.38v2.15h-20.1V94.32c.56,0,1.41-.12,2.54-.23a9.45,9.45,0,0,0,2.36-.44,2.76,2.76,0,0,0,1.5-1.24,4.19,4.19,0,0,0,.41-1.94V80a5.49,5.49,0,0,0-.59-1.77c-.39-.86-.86-1.81-1.41-2.86-1.21-2.34-2.55-4.88-4-7.6s-2.76-5.06-3.85-7a17,17,0,0,0-1.77-2.6,9.33,9.33,0,0,0-1.77-1.54,5.71,5.71,0,0,0-1.74-.7,11.94,11.94,0,0,0-1.83-.3V53.51h18.33v2.15a19.52,19.52,0,0,0-4.36.42c-.85.24-1.27.58-1.27,1a2.06,2.06,0,0,0,.18.63c.12.3.29.68.51,1.15s.58,1.12.94,1.8.71,1.33,1,2q1.41,2.7,2.9,5.37t3.86,7q4.75-7.65,7.25-11.94t2.49-5.13a1.37,1.37,0,0,0-.51-1.11,3.61,3.61,0,0,0-1.36-.67,10.87,10.87,0,0,0-1.91-.32c-.68,0-1.32-.1-1.91-.16V53.51h14.94Z"/></g></g></g></svg>