<svg xmlns="http://www.w3.org/2000/svg" viewBox="0 0 396.14 301.97"><defs><style>.cls-1{isolation:isolate;}.cls-2{fill:#1d1d1b;opacity:0.2;mix-blend-mode:multiply;}.cls-3{fill:#4657a3;}.cls-4{fill:#38437e;}.cls-5{fill:#5aa6dc;}.cls-6{fill:#4986b0;}.cls-7{fill:#fff;}.cls-8{fill:#4152a0;}</style></defs><g class="cls-1"><g id="Слой_2" data-name="Слой 2"><g id="Слой_1-2" data-name="Слой 1"><g id="Logo"><g id="Base"><path class="cls-2" d="M204.25,10.79l-65.39,65.4a61.65,61.65,0,0,0,0,87.19l65.39,65.4,65.4-65.4a61.65,61.65,0,0,0,0-87.19Z"/><g id="Base-2" data-name="Base"><path class="cls-3" d="M196.54,0,131.15,65.4a61.65,61.65,0,0,0,0,87.19L196.54,218l65.4-65.4a61.65,61.65,0,0,0,0-87.19Z"/></g></g><path id="Shadow_1" data-name="Shadow 1" class="cls-4" d="M202.66,28,219,44.31,170,93.36a30.83,30.83,0,0,0,0,43.6l49,49-16.35,16.35-49-49a54,54,0,0,1,0-76.3Z"/><path id="Shadow_2" data-name="Shadow 2" class="cls-4" d="M235.35,60.66,251.7,77a54,54,0,0,1,0,76.3l-16.35,16.34-18.52-18.52,16.34-16.35c11.27-11.27,12-25.27,2.17-36.89l-.07-.08-35.88,35.88-9.81-9.81a12.32,12.32,0,0,1,0-17.44Z"/><g id="Edges"><path id="Left_side" data-name="Left side" class="cls-5" d="M196.49,180.78l-.05,15.41-49-49.05a53.84,53.84,0,0,1-15.23-46,53.67,53.67,0,0,0,15.27,30.61Z"/><polygon class="cls-6" points="196.54 180.77 196.49 196.19 212.84 179.84 212.89 164.42 196.54 180.77"/><path class="cls-6" d="M212.84,22.74l-.05,15.41-49,49.05a30.48,30.48,0,0,0-8,14,30.83,30.83,0,0,1,8.07-29.43l41.33-41.3Z"/><path class="cls-5" d="M193.27,112.11l-.05,15.41-9.82-9.8a12.31,12.31,0,0,1-3.53-10V93.9a12.18,12.18,0,0,0,2.67,7.34,9,9,0,0,0,.92,1.05Z"/><polygon class="cls-5" points="210.71 129.54 210.66 144.96 229.19 163.49 229.24 148.07 210.71 129.54"/><path class="cls-6" d="M245.59,147.14l-16.35,16.34.06-15.41,16.34-16.34a53.56,53.56,0,0,0,15.23-30.27A53.88,53.88,0,0,1,245.59,147.14Z"/><path class="cls-6" d="M235.66,98.23a22.23,22.23,0,0,1-.85,3.12c-.25-.73-.53-1.46-.85-2.18a31.09,31.09,0,0,0-4.73-7.44l-.08-.09-35.88,35.88,0-15.41L229.2,76.23l.08.08C235.05,83.14,237.18,90.79,235.66,98.23Z"/></g><g id="Top"><path class="cls-7" d="M229.24,39.08l16.35,16.35a53.94,53.94,0,0,1,0,76.29l-16.35,16.35-18.53-18.53,16.35-16.35c11.27-11.26,12-25.26,2.16-36.88l-.07-.08-35.88,35.88-9.81-9.81a12.34,12.34,0,0,1,0-17.44Z"/><path class="cls-7" d="M196.54,6.38l16.35,16.35-49,49.05a30.82,30.82,0,0,0,0,43.59l49,49-16.35,16.35-49-49.05a54,54,0,0,1,0-76.29Z"/></g></g><path class="cls-8" d="M37,265.51h-2.5a17,17,0,0,0-2.9-5.61c-1.47-2-2.88-3.09-4.23-3.28-.69-.09-1.5-.16-2.44-.2s-2-.07-3.21-.07h-7.9v18.93h5.43a11.27,11.27,0,0,0,3.82-.52,5.86,5.86,0,0,0,2.33-1.58,6.64,6.64,0,0,0,1.22-2.27,13.92,13.92,0,0,0,.71-3.3h2.49v18.52H27.29a14.2,14.2,0,0,0-.68-3.32,8.48,8.48,0,0,0-1.25-2.69,4.89,4.89,0,0,0-2.51-1.67,12.88,12.88,0,0,0-3.64-.45H13.78v16.21a4.24,4.24,0,0,0,.43,2,3.2,3.2,0,0,0,1.53,1.4,12.12,12.12,0,0,0,2.16.56,16.94,16.94,0,0,0,2.52.36v2.36H0v-2.36c.66,0,1.55-.11,2.66-.21a8.14,8.14,0,0,0,2.15-.38,2.87,2.87,0,0,0,1.45-1.28,4.33,4.33,0,0,0,.45-2v-34a5,5,0,0,0-.37-1.95,2.79,2.79,0,0,0-1.53-1.37,10.94,10.94,0,0,0-2.4-.77,19.45,19.45,0,0,0-2.41-.4v-2.35H37Z"/><path class="cls-8" d="M88.09,282.05c-.53.07-1.25.17-2.14.31a8.07,8.07,0,0,0-2.18.62,2.93,2.93,0,0,0-1.41,1.41,5.08,5.08,0,0,0-.42,2.14v3.65c0,2.66,0,4.45,0,5.38s.08,1.7.12,2.29a50.06,50.06,0,0,1-8.8,3.06,36.33,36.33,0,0,1-8.6,1.06,23,23,0,0,1-8.7-1.69,21.76,21.76,0,0,1-7.3-4.82,23.1,23.1,0,0,1-5-7.68,26.3,26.3,0,0,1-1.86-10.1,27.56,27.56,0,0,1,1.78-10,23.64,23.64,0,0,1,5-8,22,22,0,0,1,7.52-5.17,23.77,23.77,0,0,1,9.35-1.84,22.51,22.51,0,0,1,6.94,1A25.33,25.33,0,0,1,77.66,256L79,253.73h2.66L82,270.2H79.25a46.56,46.56,0,0,0-1.72-5.37,19.1,19.1,0,0,0-2.66-4.73,12.34,12.34,0,0,0-4-3.34,11.75,11.75,0,0,0-5.6-1.24A13.61,13.61,0,0,0,59,257a13.86,13.86,0,0,0-4.86,4.31A20.34,20.34,0,0,0,51,268.15a35.76,35.76,0,0,0-1.1,9.2A32.15,32.15,0,0,0,51,285.81a21.54,21.54,0,0,0,3.14,6.86,15,15,0,0,0,5.16,4.65,14.32,14.32,0,0,0,7,1.7,15.19,15.19,0,0,0,5.34-.9,9.78,9.78,0,0,0,3.4-1.89,23.93,23.93,0,0,0,.29-3.49c0-1.17,0-2.17,0-3v-2.59a7.24,7.24,0,0,0-.38-2.47,2.63,2.63,0,0,0-1.58-1.58,11,11,0,0,0-3-.75c-1.25-.16-2.23-.27-2.94-.31v-2.43H88.09Z"/><path class="cls-8" d="M150.54,287l-.9,13.88H110.53v-2.36c.66,0,1.55-.13,2.66-.28a8.51,8.51,0,0,0,2.15-.45,3,3,0,0,0,1.48-1.29,4.34,4.34,0,0,0,.42-2V260.57a5,5,0,0,0-.37-1.95,2.79,2.79,0,0,0-1.53-1.37,10.94,10.94,0,0,0-2.4-.77,19.45,19.45,0,0,0-2.41-.4v-2.35H147v11.35H144.5a15.32,15.32,0,0,0-2.88-5.36c-1.47-1.89-2.87-2.93-4.2-3.1-.68-.09-1.5-.16-2.45-.2s-2-.07-3.26-.07h-7.4v18.73h5.31a10.43,10.43,0,0,0,3.74-.49,5.09,5.09,0,0,0,2.07-1.61,8.55,8.55,0,0,0,1.25-2.57,16.15,16.15,0,0,0,.68-3h2.49v18.46h-2.49a14.89,14.89,0,0,0-.72-3.37,8.46,8.46,0,0,0-1.21-2.57,4.75,4.75,0,0,0-2.34-1.69,12.1,12.1,0,0,0-3.47-.4h-5.31v14.12a14.78,14.78,0,0,0,.3,3.35,3.07,3.07,0,0,0,1.16,1.85,4.94,4.94,0,0,0,2.36.82,37.87,37.87,0,0,0,4.25.18h2.89a28.56,28.56,0,0,0,3-.13,16.91,16.91,0,0,0,2.6-.49,3.91,3.91,0,0,0,1.91-.94,21.1,21.1,0,0,0,3.21-4.83,33.33,33.33,0,0,0,2.14-4.77Z"/><path class="cls-8" d="M205.06,256.08a15,15,0,0,0-2.86.54,10.26,10.26,0,0,0-2.75,1,4.68,4.68,0,0,0-1.61,3.19,35.12,35.12,0,0,0-.42,6v34.5h-2.89L166,262.76v24.3a29.46,29.46,0,0,0,.51,6.28,5.79,5.79,0,0,0,1.58,3.12,7.72,7.72,0,0,0,3.15,1.36,19.16,19.16,0,0,0,3.16.66v2.36H155.05v-2.36a18.48,18.48,0,0,0,3-.64,8,8,0,0,0,2.66-1,4.77,4.77,0,0,0,1.59-2.84,33.32,33.32,0,0,0,.44-6.52V264.22a9.38,9.38,0,0,0-.53-3.06,5.73,5.73,0,0,0-1.43-2.35,10.14,10.14,0,0,0-3.24-1.88,11.74,11.74,0,0,0-3.3-.85v-2.35h13.46l26.48,35.92V267.24a29,29,0,0,0-.53-6.33,5,5,0,0,0-1.53-2.93,11.14,11.14,0,0,0-3-1.23,16.91,16.91,0,0,0-3.2-.67v-2.35h19.16Z"/><path class="cls-8" d="M249.85,287l-.9,13.88H209.84v-2.36c.66,0,1.55-.13,2.65-.28a8.52,8.52,0,0,0,2.16-.45,3,3,0,0,0,1.48-1.29,4.47,4.47,0,0,0,.41-2V260.57a5,5,0,0,0-.36-1.95,2.83,2.83,0,0,0-1.53-1.37,11,11,0,0,0-2.41-.77,19.35,19.35,0,0,0-2.4-.4v-2.35h36.45v11.35H243.8a15.28,15.28,0,0,0-2.87-5.36c-1.47-1.89-2.87-2.93-4.2-3.1-.68-.09-1.5-.16-2.46-.2s-2-.07-3.25-.07h-7.4v18.73h5.31a10.33,10.33,0,0,0,3.73-.49,5,5,0,0,0,2.08-1.61,8.32,8.32,0,0,0,1.24-2.57,15.41,15.41,0,0,0,.68-3h2.49v18.46h-2.49a14.32,14.32,0,0,0-.71-3.37,8.7,8.7,0,0,0-1.21-2.57,4.79,4.79,0,0,0-2.34-1.69,12.15,12.15,0,0,0-3.47-.4h-5.31v14.12a15.48,15.48,0,0,0,.29,3.35,3.08,3.08,0,0,0,1.17,1.85,4.94,4.94,0,0,0,2.35.82,38.12,38.12,0,0,0,4.25.18h2.89a28.31,28.31,0,0,0,3-.13,16.81,16.81,0,0,0,2.61-.49,4,4,0,0,0,1.91-.94,20.79,20.79,0,0,0,3.2-4.83,32.54,32.54,0,0,0,2.15-4.77Z"/><path class="cls-8" d="M301.91,300.84H289.22q-4.22-6.6-7.61-11.42t-7.38-9.93H269.4v14.94a5.21,5.21,0,0,0,.37,2.05,2.56,2.56,0,0,0,1.56,1.34,9.71,9.71,0,0,0,2.09.43c1,.13,1.84.21,2.52.23v2.36H256v-2.36c.53,0,1.3-.12,2.31-.23a7.82,7.82,0,0,0,2.11-.43,2.9,2.9,0,0,0,1.44-1.26,4.43,4.43,0,0,0,.45-2.13V260.37a5.94,5.94,0,0,0-.33-2.06,2.43,2.43,0,0,0-1.56-1.36,15.19,15.19,0,0,0-2.16-.55,21.28,21.28,0,0,0-2.26-.32v-2.35h21.75a24.55,24.55,0,0,1,5.61.61,15.11,15.11,0,0,1,4.75,2,10,10,0,0,1,3.29,3.47,10.29,10.29,0,0,1,1.23,5.16,12.83,12.83,0,0,1-.84,4.81,9.81,9.81,0,0,1-2.45,3.62,14.72,14.72,0,0,1-3.59,2.48,27.13,27.13,0,0,1-4.61,1.77q3.48,4.62,5.79,7.77t5.66,7.67a15.77,15.77,0,0,0,2.64,2.94,13.82,13.82,0,0,0,2.34,1.54,8.22,8.22,0,0,0,2.16.67,16.35,16.35,0,0,0,2.16.26Zm-17.47-35.11a8.58,8.58,0,0,0-9.39-9.28H269.4v20.19h4.35a10.27,10.27,0,0,0,10.69-10.91Z"/><path class="cls-8" d="M350.68,282.05l-2.14.31a8.09,8.09,0,0,0-2.17.62,2.84,2.84,0,0,0-1.41,1.41,5.08,5.08,0,0,0-.42,2.14v3.65c0,2.66,0,4.45,0,5.38s.07,1.7.12,2.29a50.35,50.35,0,0,1-8.8,3.06,36.39,36.39,0,0,1-8.6,1.06,23,23,0,0,1-8.7-1.69,21.81,21.81,0,0,1-7.31-4.82,23.24,23.24,0,0,1-5-7.68,26.3,26.3,0,0,1-1.86-10.1,27.35,27.35,0,0,1,1.78-10,23.64,23.64,0,0,1,5-8,22,22,0,0,1,7.52-5.17,23.73,23.73,0,0,1,9.34-1.84,22.51,22.51,0,0,1,6.94,1,25.66,25.66,0,0,1,5.22,2.32l1.36-2.25h2.65l.3,16.47h-2.72a44.75,44.75,0,0,0-1.73-5.37,18.79,18.79,0,0,0-2.66-4.73,12.3,12.3,0,0,0-4-3.34,11.78,11.78,0,0,0-5.6-1.24,13.65,13.65,0,0,0-6.35,1.44,13.83,13.83,0,0,0-4.85,4.31,20.16,20.16,0,0,0-3.13,6.88,35.78,35.78,0,0,0-1.09,9.2,32.15,32.15,0,0,0,1.08,8.46,21.32,21.32,0,0,0,3.14,6.86,15,15,0,0,0,5.15,4.65,14.36,14.36,0,0,0,7,1.7,15.13,15.13,0,0,0,5.33-.9,9.84,9.84,0,0,0,3.41-1.89,23.92,23.92,0,0,0,.28-3.49c0-1.17,0-2.17,0-3v-2.59a7.49,7.49,0,0,0-.38-2.47,2.65,2.65,0,0,0-1.58-1.58,11,11,0,0,0-3-.75c-1.25-.16-2.23-.27-2.94-.31v-2.43h20.65Z"/><path class="cls-8" d="M396.14,256.08a8.77,8.77,0,0,0-1.8.45,6.64,6.64,0,0,0-1.76.82,13.58,13.58,0,0,0-1.76,1.22,20.56,20.56,0,0,0-1.79,2.26q-2.59,3.66-4.78,7.41t-5.48,9.53a17.79,17.79,0,0,0-1.63,3.42,13.65,13.65,0,0,0-.4,3.75v9a4.17,4.17,0,0,0,.49,2.07,3.31,3.31,0,0,0,1.64,1.41,17.7,17.7,0,0,0,2.49.65,17.31,17.31,0,0,0,2.89.41v2.36H362.2v-2.36q.93-.06,2.79-.24a10.69,10.69,0,0,0,2.59-.49,3.06,3.06,0,0,0,1.65-1.36,4.65,4.65,0,0,0,.44-2.12V282.81a5.87,5.87,0,0,0-.64-1.94c-.44-.94-.95-2-1.55-3.14q-2-3.86-4.42-8.33c-1.61-3-3-5.55-4.21-7.67a19.44,19.44,0,0,0-1.94-2.86,10.22,10.22,0,0,0-2-1.69,6.19,6.19,0,0,0-1.9-.76,13.61,13.61,0,0,0-2-.34v-2.35h20.1v2.35a21.26,21.26,0,0,0-4.78.47c-.93.26-1.39.64-1.39,1.12a2.11,2.11,0,0,0,.2.7c.13.33.32.75.56,1.26s.63,1.23,1,2,.77,1.46,1.12,2.14c1,2,2.1,3.94,3.18,5.89l4.24,7.66q5.22-8.4,7.95-13.1c1.82-3.13,2.74-5,2.74-5.62a1.51,1.51,0,0,0-.57-1.23,4.07,4.07,0,0,0-1.49-.73,11,11,0,0,0-2.09-.34c-.76-.06-1.45-.12-2.1-.19v-2.35h16.39Z"/></g></g></g></svg>