<svg width="23" height="18" viewBox="0 0 23 18" fill="none" xmlns="http://www.w3.org/2000/svg">
<g clip-path="url(#clip0)">
<path d="M2.90899 6.00055C3.7021 6.00055 4.23083 6.27327 5.02393 6.81873C6.08141 7.90964 6.87451 8.72782 7.93198 9.81873C8.46072 10.6369 8.72509 10.6369 9.51819 9.81873C12.4262 6.81873 15.0699 3.81873 17.978 1.09145C18.7711 0.273273 19.8285 -0.272181 21.1504 0.273273C22.2078 0.818728 23.0009 1.36418 23.0009 2.72782C23.2653 3.81873 22.7366 4.63691 22.2078 5.45509C18.2423 9.00055 14.5412 13.0915 10.84 16.9096C9.51819 18.2733 8.19635 18.2733 6.87451 16.9096C4.75957 15.0005 2.64462 13.0915 0.79405 10.9096C0.000946122 10.0915 -0.263422 8.72782 0.265314 7.63691C0.79405 6.546 1.85152 6.00055 2.90899 6.00055Z" fill="#78CBC3"/>
</g>
<defs>
<clipPath id="clip0">
<rect width="23" height="18" fill="white"/>
</clipPath>
</defs>
</svg>
